<?xml version="1.0" encoding="UTF-8"?>
<!DOCTYPE svg PUBLIC "-//W3C//DTD SVG 1.1//EN" "http://www.w3.org/Graphics/SVG/1.1/DTD/svg11.dtd">
<svg xmlns="http://www.w3.org/2000/svg" version="1.1" width="512px" height="512px" style="shape-rendering:geometricPrecision; text-rendering:geometricPrecision; image-rendering:optimizeQuality; fill-rule:evenodd; clip-rule:evenodd" xmlns:xlink="http://www.w3.org/1999/xlink">
<g><path style="opacity:0.994" fill="#2c2c2e" d="M 210.5,-0.5 C 211.833,-0.5 213.167,-0.5 214.5,-0.5C 304.444,52.1451 394.777,104.312 485.5,156C 488.921,157.699 491.921,159.865 494.5,162.5C 492.5,163.5 490.5,164.5 488.5,165.5C 394.552,111.53 300.886,57.197 207.5,2.5C 208.306,1.27187 209.306,0.271873 210.5,-0.5 Z"/></g>
<g><path style="opacity:0.995" fill="#1d1d1f" d="M 207.5,2.5 C 300.886,57.197 394.552,111.53 488.5,165.5C 488.272,238.669 487.605,311.669 486.5,384.5C 394.06,330.441 301.393,276.608 208.5,223C 206.866,222.506 205.199,222.34 203.5,222.5C 205.325,157.38 206.158,92.0469 206,26.5C 206.171,18.3228 206.671,10.3228 207.5,2.5 Z"/></g>
<g><path style="opacity:1" fill="#2d2d2f" d="M 217.5,26.5 C 303.53,76.2695 389.697,125.936 476,175.5C 476.833,238.169 476.667,300.836 475.5,363.5C 389.585,313.96 303.752,264.293 218,214.5C 217.5,151.834 217.333,89.1676 217.5,26.5 Z"/></g>
<g><path style="opacity:1" fill="#2d2d2f" d="M 203.5,222.5 C 205.199,222.34 206.866,222.506 208.5,223C 301.393,276.608 394.06,330.441 486.5,384.5C 424.115,421.53 361.448,458.197 298.5,494.5C 204.755,439.964 110.755,385.964 16.5,332.5C 16.9371,330.926 17.9371,329.759 19.5,329C 80.9798,293.672 142.313,258.172 203.5,222.5 Z"/></g>
<g><path style="opacity:1" fill="#1e1d1f" d="M 212.5,244.5 C 216.936,244.21 221.27,244.71 225.5,246C 300.076,288.536 374.243,331.702 448,375.5C 448.667,376.833 448.667,378.167 448,379.5C 415.249,399.126 382.416,418.626 349.5,438C 343.5,441.333 337.5,441.333 331.5,438C 260.663,396.747 189.663,355.747 118.5,315C 115.217,313.439 112.383,311.273 110,308.5C 109.731,305.72 110.898,303.554 113.5,302C 146.669,282.97 179.669,263.803 212.5,244.5 Z"/></g>
<g><path style="opacity:1" fill="#9f0622" d="M 217.5,271.5 C 218.72,273.284 218.72,274.95 217.5,276.5C 210.968,273.071 204.634,269.404 198.5,265.5C 198.238,264.022 198.571,262.689 199.5,261.5C 205.527,264.845 211.527,268.179 217.5,271.5 Z"/></g>
<g><path style="opacity:1" fill="#3f3c42" d="M 261.5,273.5 C 254.663,277.753 247.663,281.753 240.5,285.5C 234.43,281.442 228.097,277.775 221.5,274.5C 226.189,270.302 231.522,266.802 237.5,264C 238.711,263.107 238.711,262.274 237.5,261.5C 231.048,265.393 224.381,268.726 217.5,271.5C 211.527,268.179 205.527,264.845 199.5,261.5C 198.571,262.689 198.238,264.022 198.5,265.5C 197.058,263.183 197.392,261.016 199.5,259C 205.764,255.62 211.931,252.12 218,248.5C 232.525,256.937 247.025,265.271 261.5,273.5 Z"/></g>
<g><path style="opacity:1" fill="#7c0b1e" d="M 221.5,274.5 C 221.074,275.528 221.074,276.861 221.5,278.5C 220.778,278.082 220.278,277.416 220,276.5C 219.023,277.774 218.189,277.774 217.5,276.5C 218.72,274.95 218.72,273.284 217.5,271.5C 224.381,268.726 231.048,265.393 237.5,261.5C 238.711,262.274 238.711,263.107 237.5,264C 231.522,266.802 226.189,270.302 221.5,274.5 Z"/></g>
<g><path style="opacity:1" fill="#9f0622" d="M 221.5,274.5 C 228.097,277.775 234.43,281.442 240.5,285.5C 240.5,286.833 240.5,288.167 240.5,289.5C 233.903,286.225 227.57,282.558 221.5,278.5C 221.074,276.861 221.074,275.528 221.5,274.5 Z"/></g>
<g><path style="opacity:1" fill="#3f3c42" d="M 283.5,286.5 C 277.201,290.988 270.534,294.988 263.5,298.5C 257.33,294.581 250.997,290.914 244.5,287.5C 244.937,285.926 245.937,284.759 247.5,284C 252.397,281.392 257.063,278.559 261.5,275.5C 262.15,275.196 262.817,274.863 263.5,274.5C 270.562,278.023 277.228,282.023 283.5,286.5 Z"/></g>
<g><path style="opacity:1" fill="#3f3c42" d="M 207.5,279.5 C 200.466,282.767 193.633,286.434 187,290.5C 180.189,287.094 173.522,283.428 167,279.5C 166.493,280.996 166.993,282.163 168.5,283C 173.666,285.748 178.666,288.748 183.5,292C 177.396,296.47 170.896,300.304 164,303.5C 157.049,299.943 150.216,296.276 143.5,292.5C 158.092,284.943 172.426,276.276 186.5,266.5C 193.732,270.608 200.732,274.941 207.5,279.5 Z"/></g>
<g><path style="opacity:1" fill="#7d091d" d="M 261.5,273.5 C 261.5,274.167 261.5,274.833 261.5,275.5C 257.063,278.559 252.397,281.392 247.5,284C 245.937,284.759 244.937,285.926 244.5,287.5C 243.662,287.842 243.328,288.508 243.5,289.5C 242.202,290.116 241.202,290.116 240.5,289.5C 240.5,288.167 240.5,286.833 240.5,285.5C 247.663,281.753 254.663,277.753 261.5,273.5 Z"/></g>
<g><path style="opacity:1" fill="#9f0622" d="M 244.5,287.5 C 250.997,290.914 257.33,294.581 263.5,298.5C 263.768,300.099 263.434,301.432 262.5,302.5C 256.527,299.179 250.527,295.845 244.5,292.5C 243.614,291.675 243.281,290.675 243.5,289.5C 243.328,288.508 243.662,287.842 244.5,287.5 Z"/></g>
<g><path style="opacity:1" fill="#7c0b1e" d="M 283.5,286.5 C 284.338,286.842 284.672,287.508 284.5,288.5C 279.061,292.059 273.394,295.392 267.5,298.5C 266.702,298.957 266.369,299.624 266.5,300.5C 266.5,301.833 266.5,303.167 266.5,304.5C 265.778,304.082 265.278,303.416 265,302.5C 264.023,303.774 263.189,303.774 262.5,302.5C 263.434,301.432 263.768,300.099 263.5,298.5C 270.534,294.988 277.201,290.988 283.5,286.5 Z"/></g>
<g><path style="opacity:1" fill="#403c42" d="M 143.5,293.5 C 149.266,297.559 155.266,301.392 161.5,305C 155.268,309.615 148.601,313.448 141.5,316.5C 134.974,312.984 128.474,309.317 122,305.5C 121.506,307.134 121.34,308.801 121.5,310.5C 120.207,308.636 120.207,306.636 121.5,304.5C 128.356,299.739 135.69,296.072 143.5,293.5 Z"/></g>
<g><path style="opacity:1" fill="#3f3c42" d="M 252.5,305.5 C 245.784,309.276 238.951,312.943 232,316.5C 225.104,313.304 218.604,309.47 212.5,305C 217.334,301.748 222.334,298.748 227.5,296C 229.007,295.163 229.507,293.996 229,292.5C 222.478,296.428 215.811,300.094 209,303.5C 202.434,299.799 195.934,295.966 189.5,292C 195.734,288.392 201.734,284.559 207.5,280.5C 208.117,280.389 208.617,280.056 209,279.5C 223.463,288.368 237.963,297.035 252.5,305.5 Z"/></g>
<g><path style="opacity:1" fill="#3f3c42" d="M 329.5,313.5 C 322.342,316.912 315.342,320.578 308.5,324.5C 302.026,320.761 295.693,316.761 289.5,312.5C 294.668,309.081 300.002,305.915 305.5,303C 306.711,302.107 306.711,301.274 305.5,300.5C 299.33,304.419 292.997,308.086 286.5,311.5C 279.799,307.777 273.133,304.11 266.5,300.5C 266.369,299.624 266.702,298.957 267.5,298.5C 273.394,295.392 279.061,292.059 284.5,288.5C 286.194,287.314 287.861,287.481 289.5,289C 296.356,293.142 302.856,296.976 309,300.5C 316.321,304.233 323.154,308.567 329.5,313.5 Z"/></g>
<g><path style="opacity:1" fill="#9f0723" d="M 141.5,316.5 C 141.5,318.167 141.5,319.833 141.5,321.5C 134.85,317.862 128.184,314.195 121.5,310.5C 121.34,308.801 121.506,307.134 122,305.5C 128.474,309.317 134.974,312.984 141.5,316.5 Z"/></g>
<g><path style="opacity:1" fill="#3f3c42" d="M 252.5,306.5 C 260.872,309.185 268.538,313.185 275.5,318.5C 269.074,321.743 262.74,325.243 256.5,329C 255.167,329.667 253.833,329.667 252.5,329C 246.5,325.333 240.5,321.667 234.5,318C 240.942,314.698 246.942,310.865 252.5,306.5 Z"/></g>
<g><path style="opacity:1" fill="#3f3c42" d="M 231.5,368.5 C 202.337,352.086 173.337,335.419 144.5,318.5C 150.772,314.023 157.438,310.023 164.5,306.5C 193.003,323.253 221.67,339.753 250.5,356C 251.833,357 251.833,358 250.5,359C 244.381,362.726 238.048,365.893 231.5,368.5 Z"/></g>
<g><path style="opacity:1" fill="#3f3c42" d="M 352.5,326.5 C 345.342,329.912 338.342,333.578 331.5,337.5C 325.003,334.086 318.67,330.419 312.5,326.5C 312.369,325.624 312.702,324.957 313.5,324.5C 319.234,321.642 324.567,318.309 329.5,314.5C 330.496,314.586 331.329,314.252 332,313.5C 339.007,317.696 345.84,322.03 352.5,326.5 Z"/></g>
<g><path style="opacity:1" fill="#980721" d="M 266.5,300.5 C 273.133,304.11 279.799,307.777 286.5,311.5C 292.997,308.086 299.33,304.419 305.5,300.5C 306.711,301.274 306.711,302.107 305.5,303C 300.002,305.915 294.668,309.081 289.5,312.5C 295.693,316.761 302.026,320.761 308.5,324.5C 308.768,326.099 308.434,327.432 307.5,328.5C 299.09,323.739 291.09,319.239 283.5,315C 277.769,311.475 272.103,307.975 266.5,304.5C 266.5,303.167 266.5,301.833 266.5,300.5 Z"/></g>
<g><path style="opacity:1" fill="#7c0a1d" d="M 329.5,313.5 C 329.5,313.833 329.5,314.167 329.5,314.5C 324.567,318.309 319.234,321.642 313.5,324.5C 312.702,324.957 312.369,325.624 312.5,326.5C 311.662,326.842 311.328,327.508 311.5,328.5C 310.039,329.686 308.705,329.686 307.5,328.5C 308.434,327.432 308.768,326.099 308.5,324.5C 315.342,320.578 322.342,316.912 329.5,313.5 Z"/></g>
<g><path style="opacity:1" fill="#9f0722" d="M 144.5,318.5 C 173.337,335.419 202.337,352.086 231.5,368.5C 232.72,370.284 232.72,371.95 231.5,373.5C 202.337,357.086 173.337,340.419 144.5,323.5C 143.904,321.602 143.904,319.935 144.5,318.5 Z"/></g>
<g><path style="opacity:1" fill="#3f3c42" d="M 275.5,319.5 C 278.691,320.092 281.691,321.259 284.5,323C 289.24,325.36 293.574,328.193 297.5,331.5C 291.647,335.172 285.647,338.672 279.5,342C 276.581,342.552 273.914,341.885 271.5,340C 266.565,337.394 261.898,334.394 257.5,331C 263.734,327.392 269.734,323.559 275.5,319.5 Z"/></g>
<g><path style="opacity:1" fill="#9f0622" d="M 312.5,326.5 C 318.67,330.419 325.003,334.086 331.5,337.5C 331.768,339.099 331.434,340.432 330.5,341.5C 324.279,338.624 318.279,335.291 312.5,331.5C 311.614,330.675 311.281,329.675 311.5,328.5C 311.328,327.508 311.662,326.842 312.5,326.5 Z"/></g>
<g><path style="opacity:1" fill="#7e081c" d="M 352.5,326.5 C 352.785,328.288 352.452,329.955 351.5,331.5C 345.336,334.748 339.336,338.248 333.5,342C 332.251,342.74 331.251,342.573 330.5,341.5C 331.434,340.432 331.768,339.099 331.5,337.5C 338.342,333.578 345.342,329.912 352.5,326.5 Z"/></g>
<g><path style="opacity:1" fill="#1d1d1f" d="M 16.5,332.5 C 110.755,385.964 204.755,439.964 298.5,494.5C 298.5,497.833 298.5,501.167 298.5,504.5C 205.551,450.623 112.717,396.956 20,343.5C 19.6174,344.056 19.1174,344.389 18.5,344.5C 17.8826,344.389 17.3826,344.056 17,343.5C 16.5014,339.848 16.3347,336.182 16.5,332.5 Z"/></g>
<g><path style="opacity:1" fill="#3f3c42" d="M 320.5,344.5 C 313.554,348.273 306.721,352.273 300,356.5C 293.368,352.698 286.868,348.698 280.5,344.5C 286.025,340.574 291.691,336.907 297.5,333.5C 298.738,332.588 300.072,332.421 301.5,333C 308.004,336.697 314.338,340.53 320.5,344.5 Z"/></g>
<g><path style="opacity:1" fill="#3f3c42" d="M 388.5,347.5 C 381.784,351.276 374.951,354.943 368,358.5C 361.367,354.434 354.534,350.767 347.5,347.5C 354.16,343.03 360.993,338.696 368,334.5C 375.007,338.696 381.84,343.03 388.5,347.5 Z"/></g>
<g><path style="opacity:1" fill="#8a0920" d="M 207.5,279.5 C 207.5,279.833 207.5,280.167 207.5,280.5C 201.734,284.559 195.734,288.392 189.5,292C 195.934,295.966 202.434,299.799 209,303.5C 215.811,300.094 222.478,296.428 229,292.5C 229.507,293.996 229.007,295.163 227.5,296C 222.334,298.748 217.334,301.748 212.5,305C 218.604,309.47 225.104,313.304 232,316.5C 238.951,312.943 245.784,309.276 252.5,305.5C 252.5,305.833 252.5,306.167 252.5,306.5C 246.942,310.865 240.942,314.698 234.5,318C 240.5,321.667 246.5,325.333 252.5,329C 253.833,329.667 255.167,329.667 256.5,329C 262.74,325.243 269.074,321.743 275.5,318.5C 275.5,318.833 275.5,319.167 275.5,319.5C 269.734,323.559 263.734,327.392 257.5,331C 261.898,334.394 266.565,337.394 271.5,340C 273.914,341.885 276.581,342.552 279.5,342C 285.647,338.672 291.647,335.172 297.5,331.5C 297.5,332.167 297.5,332.833 297.5,333.5C 291.691,336.907 286.025,340.574 280.5,344.5C 286.868,348.698 293.368,352.698 300,356.5C 306.721,352.273 313.554,348.273 320.5,344.5C 320.739,346.467 320.406,348.301 319.5,350C 297.508,362.639 275.842,375.139 254.5,387.5C 246.494,382.379 238.828,377.712 231.5,373.5C 232.72,371.95 232.72,370.284 231.5,368.5C 238.048,365.893 244.381,362.726 250.5,359C 251.833,358 251.833,357 250.5,356C 221.67,339.753 193.003,323.253 164.5,306.5C 157.438,310.023 150.772,314.023 144.5,318.5C 143.904,319.935 143.904,321.602 144.5,323.5C 143.778,322.449 142.778,321.782 141.5,321.5C 141.5,319.833 141.5,318.167 141.5,316.5C 148.601,313.448 155.268,309.615 161.5,305C 155.266,301.392 149.266,297.559 143.5,293.5C 143.5,293.167 143.5,292.833 143.5,292.5C 150.216,296.276 157.049,299.943 164,303.5C 170.896,300.304 177.396,296.47 183.5,292C 178.666,288.748 173.666,285.748 168.5,283C 166.993,282.163 166.493,280.996 167,279.5C 173.522,283.428 180.189,287.094 187,290.5C 193.633,286.434 200.466,282.767 207.5,279.5 Z"/></g>
<g><path style="opacity:1" fill="#403c42" d="M 253.5,332.5 C 260.766,335.801 267.766,339.634 274.5,344C 268.085,348.291 261.585,352.458 255,356.5C 248.167,352.333 241.333,348.167 234.5,344C 241.23,340.643 247.563,336.81 253.5,332.5 Z"/></g>
<g><path style="opacity:1" fill="#3f3c42" d="M 231.5,319.5 C 238.275,323.057 244.942,326.89 251.5,331C 245.337,336.551 238.337,340.217 230.5,342C 224.166,338.835 218.166,335.169 212.5,331C 218.897,327.141 225.23,323.308 231.5,319.5 Z"/></g>
<g><path style="opacity:1" fill="#403c42" d="M 208.5,306.5 C 215.766,309.801 222.766,313.634 229.5,318C 223.764,322.064 217.764,325.73 211.5,329C 209.365,329.635 207.365,329.301 205.5,328C 200.167,324.667 194.833,321.333 189.5,318C 195.897,314.141 202.23,310.308 208.5,306.5 Z"/></g>
<g><path style="opacity:1" fill="#3f3c42" d="M 185.5,293.5 C 192.723,296.781 199.723,300.615 206.5,305C 200.396,309.47 193.896,313.304 187,316.5C 179.94,313.054 173.107,309.22 166.5,305C 173.004,301.303 179.338,297.47 185.5,293.5 Z"/></g>
<g><path style="opacity:1" fill="#2e2d2f" d="M 175.5,352.5 C 177.336,354.588 179.669,355.921 182.5,356.5C 185.976,359.623 189.976,361.957 194.5,363.5C 196.336,365.588 198.669,366.921 201.5,367.5C 207.334,371.921 213.668,375.588 220.5,378.5C 222.371,379.881 223.704,381.715 224.5,384C 224.241,385.261 223.574,386.261 222.5,387C 209.167,394.667 195.833,402.333 182.5,410C 179.167,410.667 175.833,410.667 172.5,410C 163.273,404.555 153.94,399.389 144.5,394.5C 138.666,390.079 132.332,386.412 125.5,383.5C 123.664,381.412 121.331,380.079 118.5,379.5C 115.402,377.108 112.069,374.942 108.5,373C 105.953,371.684 105.287,369.851 106.5,367.5C 117.231,360.808 127.898,354.142 138.5,347.5C 141.757,346.538 144.757,345.038 147.5,343C 150.833,342.333 154.167,342.333 157.5,343C 163.396,346.447 169.396,349.614 175.5,352.5 Z"/></g>
<g><path style="opacity:1" fill="#392d2f" d="M 298.5,504.5 C 291.833,506.833 285.167,509.167 278.5,511.5C 276.5,511.5 274.5,511.5 272.5,511.5C 196.557,466.855 120.223,422.688 43.5,379C 41.3911,377.859 39.5578,376.359 38,374.5C 31.2508,364.6 24.7508,354.6 18.5,344.5C 19.1174,344.389 19.6174,344.056 20,343.5C 112.717,396.956 205.551,450.623 298.5,504.5 Z"/></g>
<g><path style="opacity:1" fill="#403c42" d="M 276.5,345.5 C 283.478,348.989 290.145,352.989 296.5,357.5C 290.372,361.736 284.038,365.736 277.5,369.5C 270.665,365.584 263.998,361.417 257.5,357C 264.23,353.643 270.563,349.81 276.5,345.5 Z"/></g>
<g><path style="opacity:1" fill="#3f3c42" d="M 347.5,348.5 C 353.436,352.141 359.436,355.808 365.5,359.5C 359.109,364.026 352.443,368.026 345.5,371.5C 339.162,367.329 332.496,363.663 325.5,360.5C 331.426,355.86 337.759,351.693 344.5,348C 345.577,347.53 346.577,347.697 347.5,348.5 Z"/></g>
<g><path style="opacity:1" fill="#3f3c42" d="M 388.5,348.5 C 396.872,351.185 404.538,355.185 411.5,360.5C 404.466,363.767 397.633,367.434 391,371.5C 383.94,368.054 377.107,364.22 370.5,360C 376.734,356.392 382.734,352.559 388.5,348.5 Z"/></g>
<g><path style="opacity:1" fill="#880e24" d="M 175.5,352.5 C 169.396,349.614 163.396,346.447 157.5,343C 154.167,342.333 150.833,342.333 147.5,343C 144.757,345.038 141.757,346.538 138.5,347.5C 145.533,339.939 153.533,338.773 162.5,344C 167.24,346.36 171.574,349.193 175.5,352.5 Z"/></g>
<g><path style="opacity:1" fill="#8a0c23" d="M 175.5,352.5 C 178.331,353.079 180.664,354.412 182.5,356.5C 179.669,355.921 177.336,354.588 175.5,352.5 Z"/></g>
<g><path style="opacity:1" fill="#83091e" d="M 347.5,347.5 C 354.534,350.767 361.367,354.434 368,358.5C 374.951,354.943 381.784,351.276 388.5,347.5C 388.5,347.833 388.5,348.167 388.5,348.5C 382.734,352.559 376.734,356.392 370.5,360C 377.107,364.22 383.94,368.054 391,371.5C 397.633,367.434 404.466,363.767 411.5,360.5C 411.5,360.833 411.5,361.167 411.5,361.5C 405.734,365.559 399.734,369.392 393.5,373C 398.833,376.333 404.167,379.667 409.5,383C 411.365,384.301 413.365,384.635 415.5,384C 421.363,380.236 427.363,376.736 433.5,373.5C 433.739,375.467 433.406,377.301 432.5,379C 420.318,385.709 408.318,392.709 396.5,400C 394.726,400.97 392.893,401.804 391,402.5C 390.235,402.43 389.735,402.097 389.5,401.5C 391.176,400.817 391.843,399.483 391.5,397.5C 398.302,393.931 404.969,390.098 411.5,386C 405.5,382.333 399.5,378.667 393.5,375C 391.365,374.365 389.365,374.699 387.5,376C 381.93,379.275 376.597,382.775 371.5,386.5C 370.904,387.935 370.904,389.602 371.5,391.5C 370.26,390.341 368.926,389.341 367.5,388.5C 368.434,387.432 368.768,386.099 368.5,384.5C 375.302,380.931 381.969,377.098 388.5,373C 382.078,367.958 375.078,364.291 367.5,362C 360.77,365.357 354.437,369.19 348.5,373.5C 348.5,374.167 348.5,374.833 348.5,375.5C 346.965,376.354 345.632,376.354 344.5,375.5C 345.434,374.432 345.768,373.099 345.5,371.5C 352.443,368.026 359.109,364.026 365.5,359.5C 359.436,355.808 353.436,352.141 347.5,348.5C 347.5,348.167 347.5,347.833 347.5,347.5 Z"/></g>
<g><path style="opacity:1" fill="#403c42" d="M 254.5,358.5 C 261.411,362.075 268.078,366.075 274.5,370.5C 268.251,374.876 261.751,378.876 255,382.5C 248.213,378.862 241.713,374.862 235.5,370.5C 241.873,366.439 248.207,362.439 254.5,358.5 Z"/></g>
<g><path style="opacity:1" fill="#f50d36" d="M 34.5,359.5 C 35.7211,358.535 37.0544,358.702 38.5,360C 72.2414,380.066 106.241,399.733 140.5,419C 141.617,422.073 141.784,425.24 141,428.5C 108.915,409.874 76.7483,391.374 44.5,373C 41.3034,368.317 37.97,363.817 34.5,359.5 Z"/></g>
<g><path style="opacity:1" fill="#890d23" d="M 182.5,356.5 C 187.024,358.043 191.024,360.377 194.5,363.5C 189.976,361.957 185.976,359.623 182.5,356.5 Z"/></g>
<g><path style="opacity:1" fill="#9f0723" d="M 325.5,360.5 C 332.496,363.663 339.162,367.329 345.5,371.5C 345.768,373.099 345.434,374.432 344.5,375.5C 338.527,372.179 332.527,368.845 326.5,365.5C 325.548,363.955 325.215,362.288 325.5,360.5 Z"/></g>
<g><path style="opacity:1" fill="#403c42" d="M 368.5,384.5 C 361.816,380.805 355.15,377.138 348.5,373.5C 354.437,369.19 360.77,365.357 367.5,362C 375.078,364.291 382.078,367.958 388.5,373C 381.969,377.098 375.302,380.931 368.5,384.5 Z"/></g>
<g><path style="opacity:1" fill="#3f3c42" d="M 411.5,361.5 C 413.655,361.372 415.655,361.872 417.5,363C 423.07,366.275 428.403,369.775 433.5,373.5C 427.363,376.736 421.363,380.236 415.5,384C 413.365,384.635 411.365,384.301 409.5,383C 404.167,379.667 398.833,376.333 393.5,373C 399.734,369.392 405.734,365.559 411.5,361.5 Z"/></g>
<g><path style="opacity:1" fill="#890c23" d="M 194.5,363.5 C 197.331,364.079 199.664,365.412 201.5,367.5C 198.669,366.921 196.336,365.588 194.5,363.5 Z"/></g>
<g><path style="opacity:1" fill="#8c0d23" d="M 138.5,347.5 C 127.898,354.142 117.231,360.808 106.5,367.5C 105.287,369.851 105.953,371.684 108.5,373C 112.069,374.942 115.402,377.108 118.5,379.5C 113.136,377.399 108.302,374.399 104,370.5C 103.333,369.5 103.333,368.5 104,367.5C 114.982,359.926 126.482,353.259 138.5,347.5 Z"/></g>
<g><path style="opacity:1" fill="#880e23" d="M 201.5,367.5 C 208.332,370.412 214.666,374.079 220.5,378.5C 213.668,375.588 207.334,371.921 201.5,367.5 Z"/></g>
<g><path style="opacity:1" fill="#a00622" d="M 348.5,373.5 C 355.15,377.138 361.816,380.805 368.5,384.5C 368.768,386.099 368.434,387.432 367.5,388.5C 362.062,385.947 356.729,383.113 351.5,380C 349.561,379.092 348.561,377.592 348.5,375.5C 348.5,374.833 348.5,374.167 348.5,373.5 Z"/></g>
<g><path style="opacity:1" fill="#3f3c42" d="M 391.5,397.5 C 384.806,393.821 378.14,390.154 371.5,386.5C 376.597,382.775 381.93,379.275 387.5,376C 389.365,374.699 391.365,374.365 393.5,375C 399.5,378.667 405.5,382.333 411.5,386C 404.969,390.098 398.302,393.931 391.5,397.5 Z"/></g>
<g><path style="opacity:1" fill="#3f3c42" d="M 311.5,392.5 C 304.342,395.912 297.342,399.578 290.5,403.5C 283.998,399.75 277.665,395.75 271.5,391.5C 277.702,387.143 284.202,383.143 291,379.5C 297.403,383.286 303.903,386.953 310.5,390.5C 311.298,390.957 311.631,391.624 311.5,392.5 Z"/></g>
<g><path style="opacity:1" fill="#3f3c42" d="M 355.5,392.5 C 349.031,395.902 342.697,399.569 336.5,403.5C 329.532,399.836 322.865,395.836 316.5,391.5C 322.772,387.023 329.438,383.023 336.5,379.5C 343.296,383.134 349.962,386.967 356.5,391C 355.944,391.383 355.611,391.883 355.5,392.5 Z"/></g>
<g><path style="opacity:1" fill="#860f24" d="M 118.5,379.5 C 121.331,380.079 123.664,381.412 125.5,383.5C 122.669,382.921 120.336,381.588 118.5,379.5 Z"/></g>
<g><path style="opacity:1" fill="#841024" d="M 125.5,383.5 C 132.332,386.412 138.666,390.079 144.5,394.5C 137.668,391.588 131.334,387.921 125.5,383.5 Z"/></g>
<g><path style="opacity:1" fill="#9e0723" d="M 371.5,386.5 C 378.14,390.154 384.806,393.821 391.5,397.5C 391.843,399.483 391.176,400.817 389.5,401.5C 383.5,398.167 377.5,394.833 371.5,391.5C 370.904,389.602 370.904,387.935 371.5,386.5 Z"/></g>
<g><path style="opacity:1" fill="#8a0e23" d="M 220.5,378.5 C 227.01,380.053 228.01,383.219 223.5,388C 209.402,396.434 195.069,404.434 180.5,412C 177.406,412.652 174.406,412.318 171.5,411C 162.103,405.977 153.103,400.477 144.5,394.5C 153.94,399.389 163.273,404.555 172.5,410C 175.833,410.667 179.167,410.667 182.5,410C 195.833,402.333 209.167,394.667 222.5,387C 223.574,386.261 224.241,385.261 224.5,384C 223.704,381.715 222.371,379.881 220.5,378.5 Z"/></g>
<g><path style="opacity:1" fill="#9f0723" d="M 271.5,391.5 C 277.665,395.75 283.998,399.75 290.5,403.5C 290.768,405.099 290.434,406.432 289.5,407.5C 283.861,404.345 278.194,401.179 272.5,398C 270.392,395.984 270.058,393.817 271.5,391.5 Z"/></g>
<g><path style="opacity:1" fill="#83081d" d="M 316.5,391.5 C 322.865,395.836 329.532,399.836 336.5,403.5C 342.697,399.569 349.031,395.902 355.5,392.5C 356.788,394.035 356.788,395.701 355.5,397.5C 350.139,400.512 344.806,403.512 339.5,406.5C 330.864,408.651 323.197,412.651 316.5,418.5C 316.178,419.858 316.178,421.525 316.5,423.5C 315.26,422.341 313.926,421.341 312.5,420.5C 313.434,419.432 313.768,418.099 313.5,416.5C 320.47,413.014 327.137,409.014 333.5,404.5C 327.436,400.808 321.436,397.141 315.5,393.5C 315.328,392.508 315.662,391.842 316.5,391.5 Z"/></g>
<g><path style="opacity:1" fill="#3f3c42" d="M 315.5,393.5 C 321.436,397.141 327.436,400.808 333.5,404.5C 327.137,409.014 320.47,413.014 313.5,416.5C 307.33,412.581 300.997,408.914 294.5,405.5C 294.937,403.926 295.937,402.759 297.5,402C 302.397,399.392 307.063,396.559 311.5,393.5C 312.833,392.167 314.167,392.167 315.5,393.5 Z"/></g>
<g><path style="opacity:1" fill="#7c0b1e" d="M 311.5,392.5 C 311.5,392.833 311.5,393.167 311.5,393.5C 307.063,396.559 302.397,399.392 297.5,402C 295.937,402.759 294.937,403.926 294.5,405.5C 293.662,405.842 293.328,406.508 293.5,407.5C 292.039,408.686 290.705,408.686 289.5,407.5C 290.434,406.432 290.768,405.099 290.5,403.5C 297.342,399.578 304.342,395.912 311.5,392.5 Z"/></g>
<g><path style="opacity:1" fill="#9f0622" d="M 294.5,405.5 C 300.997,408.914 307.33,412.581 313.5,416.5C 313.768,418.099 313.434,419.432 312.5,420.5C 306.527,417.179 300.527,413.845 294.5,410.5C 293.614,409.675 293.281,408.675 293.5,407.5C 293.328,406.508 293.662,405.842 294.5,405.5 Z"/></g>
<g><path style="opacity:1" fill="#3f3c42" d="M 339.5,406.5 C 344.768,410.476 350.434,413.976 356.5,417C 357.807,418.943 357.807,420.777 356.5,422.5C 356.762,421.022 356.429,419.689 355.5,418.5C 349.303,422.431 342.969,426.098 336.5,429.5C 329.806,425.821 323.14,422.154 316.5,418.5C 323.197,412.651 330.864,408.651 339.5,406.5 Z"/></g>
<g><path style="opacity:1" fill="#080405" d="M 494.5,162.5 C 494.667,235.501 494.5,308.501 494,381.5C 492.414,382.376 490.914,383.376 489.5,384.5C 488.833,388.167 488.167,391.833 487.5,395.5C 424.608,432.109 361.608,468.443 298.5,504.5C 298.5,501.167 298.5,497.833 298.5,494.5C 361.448,458.197 424.115,421.53 486.5,384.5C 487.605,311.669 488.272,238.669 488.5,165.5C 490.5,164.5 492.5,163.5 494.5,162.5 Z"/></g>
<g><path style="opacity:1" fill="#18598c" d="M 470.5,398.5 C 471.776,399.386 471.776,400.386 470.5,401.5C 466.583,403.708 462.75,406.041 459,408.5C 457.323,406.852 457.156,405.185 458.5,403.5C 458.369,404.376 458.702,405.043 459.5,405.5C 463.401,403.392 467.067,401.059 470.5,398.5 Z"/></g>
<g><path style="opacity:1" fill="#1c78bf" d="M 470.5,398.5 C 467.067,401.059 463.401,403.392 459.5,405.5C 458.702,405.043 458.369,404.376 458.5,403.5C 461.806,401.511 465.139,399.511 468.5,397.5C 469.183,397.863 469.85,398.196 470.5,398.5 Z"/></g>
<g><path style="opacity:1" fill="#1b6197" d="M 452.5,406.5 C 455.076,406.722 455.91,408.055 455,410.5C 450.968,412.934 446.801,414.934 442.5,416.5C 442.343,415.127 442.51,413.793 443,412.5C 446.34,410.637 449.507,408.637 452.5,406.5 Z"/></g>
<g><path style="opacity:1" fill="#9f0622" d="M 316.5,418.5 C 323.14,422.154 329.806,425.821 336.5,429.5C 336.768,431.099 336.434,432.432 335.5,433.5C 329.009,430.422 322.675,427.088 316.5,423.5C 316.178,421.525 316.178,419.858 316.5,418.5 Z"/></g>
<g><path style="opacity:1" fill="#7f051b" d="M 356.5,422.5 C 350.135,426.836 343.468,430.836 336.5,434.5C 335.893,434.376 335.56,434.043 335.5,433.5C 336.434,432.432 336.768,431.099 336.5,429.5C 342.969,426.098 349.303,422.431 355.5,418.5C 356.429,419.689 356.762,421.022 356.5,422.5 Z"/></g>
<g><path style="opacity:1" fill="#f50d36" d="M 154.5,427.5 C 197.816,452.472 241.15,477.472 284.5,502.5C 279.528,505.841 274.528,506.007 269.5,503C 231.5,481 193.5,459 155.5,437C 154.549,433.943 154.216,430.777 154.5,427.5 Z"/></g>
</svg>
